<svg id="Capa_2" data-name="Capa 2" xmlns="http://www.w3.org/2000/svg" viewBox="0 0 1000 1000"><defs><style>.cls-1,.cls-3{fill:#b2b2b2;}.cls-1,.cls-2,.cls-3,.cls-4,.cls-5{stroke:#000;stroke-miterlimit:10;}.cls-1,.cls-2{stroke-width:2px;}.cls-2,.cls-6{fill:#ea899a;}.cls-5{fill:#fff;}</style></defs><path class="cls-1" d="M392.75,556.22S291.27,696.57,280.91,723.65c-12.17,31.81-27,200.78,2,213.7s489.78,8.94,489.78,8.94,42-140,4-194.75S708.52,601.48,652.14,556.22Z"/><path class="cls-2" d="M706.12,100.87s191.35-177.61,265,101.43c0,0,25.43,155.67-39.23,228.77s-36.75,164.2-46.2,183.87S864,687,783,643.44,706.12,100.87,706.12,100.87Z"/><path class="cls-3" d="M731.58,225.71s121.84-105,156.7,11.5C924.51,358.3,885.66,351.79,838,512.46c-26.9,90.65-112.77-76.84-110.38-113.88S731.58,225.71,731.58,225.71Z"/><path class="cls-2" d="M338.2,98.47S151-83.42,71,193.89c0,0-29,155.05,34,229.6s33,165,42,184.87,20,72.55,102,30.81S338.2,98.47,338.2,98.47Z"/><path class="cls-3" d="M309.89,222.71S190.48,114.94,153,230.66c-39,120.24,0,114.61,44,276.32,24.82,91.24,114.5-74.27,113-111.36S309.89,222.71,309.89,222.71Z"/><path class="cls-1" d="M272.91,308.13c.38,126.6,102,296.13,246.39,294.26,175-2.26,241.23-185.39,257.39-285.75C803.44,150.51,661.45,12,519.3,12S272.41,144.19,272.91,308.13Z"/><ellipse class="cls-4" cx="423.36" cy="375.67" rx="78.84" ry="94.35"/><ellipse class="cls-5" cx="445.04" cy="350.9" rx="38.8" ry="44.73"/><ellipse class="cls-5" cx="392.75" cy="404.06" rx="13.49" ry="18.39"/><ellipse class="cls-5" cx="406.24" cy="453.02" rx="6.75" ry="6.71"/><ellipse class="cls-5" cx="426.32" cy="461.05" rx="8.08" ry="8.04"/><ellipse class="cls-4" cx="627.38" cy="376.7" rx="78.84" ry="94.35"/><ellipse class="cls-5" cx="649.07" cy="351.93" rx="38.8" ry="44.73"/><ellipse class="cls-5" cx="596.77" cy="405.1" rx="13.49" ry="18.39"/><ellipse class="cls-5" cx="610.27" cy="454.05" rx="6.75" ry="6.71"/><ellipse class="cls-5" cx="630.34" cy="462.09" rx="8.08" ry="8.04"/><path d="M364.67,316.45A63.29,63.29,0,0,1,348.83,305a52.06,52.06,0,0,1-6.25-7.57,21.5,21.5,0,0,1-1.34-2.07L340,293.28c-.71-1.49-1.53-2.92-2.09-4.47a37.86,37.86,0,0,1-2.51-9.53,33.46,33.46,0,0,1,.08-9.84,35.26,35.26,0,0,1,2.92-9.38,40.46,40.46,0,0,1,5.29-8.22,39.25,39.25,0,0,0-7.45,17.71l-.15,1.2L336,272c0,.8-.12,1.6-.09,2.41l.08,2.41c0,.8.19,1.59.28,2.39a36.85,36.85,0,0,0,2.54,9.27,48.1,48.1,0,0,0,2,4.39l1.21,2.1a21.84,21.84,0,0,0,1.29,2,59.13,59.13,0,0,0,6,7.55A71.94,71.94,0,0,0,364.67,316.45Z"/><path d="M347.31,377.46a63.12,63.12,0,0,1-19.1-4.1,52.35,52.35,0,0,1-8.78-4.43c-1.44-.81-2.72-1.85-4.07-2.79s-2.57-2.05-3.71-3.25a38.1,38.1,0,0,1-6.16-7.7,34,34,0,0,1-3.92-9.05,35,35,0,0,1-1.12-9.76,39.88,39.88,0,0,1,1.51-9.67,39.11,39.11,0,0,0,.35,19.23l.36,1.15.43,1.13c.3.74.53,1.52.89,2.24l1.05,2.17c.36.72.82,1.39,1.22,2.08a37.59,37.59,0,0,0,6.08,7.46c1.1,1.18,2.4,2.15,3.61,3.22s2.56,2,4,2.78a60.84,60.84,0,0,0,8.58,4.49A72.32,72.32,0,0,0,347.31,377.46Z"/><path d="M359.64,342.47A63.45,63.45,0,0,1,341,336.66a53.31,53.31,0,0,1-8.34-5.2c-1.35-.94-2.53-2.1-3.79-3.15s-2.38-2.28-3.41-3.57a38.22,38.22,0,0,1-5.43-8.23,34.07,34.07,0,0,1-3.08-9.36,35.2,35.2,0,0,1-.22-9.83,40.55,40.55,0,0,1,2.38-9.48,39.18,39.18,0,0,0-1.4,19.17l.25,1.18.33,1.16c.23.77.39,1.57.68,2.32l.85,2.25c.29.75.69,1.46,1,2.18a37.41,37.41,0,0,0,5.37,8c1,1.27,2.19,2.36,3.3,3.53s2.37,2.18,3.69,3.12a59.38,59.38,0,0,0,8.14,5.24A72.34,72.34,0,0,0,359.64,342.47Z"/><path d="M688.72,326.71A71.94,71.94,0,0,0,704,314.77a58.44,58.44,0,0,0,6-7.55,20.69,20.69,0,0,0,1.3-2l1.21-2.09a48.1,48.1,0,0,0,2-4.39,37.35,37.35,0,0,0,2.54-9.28c.08-.79.24-1.59.27-2.39l.09-2.41c0-.8-.08-1.6-.1-2.41l-.06-1.2-.14-1.2a39.25,39.25,0,0,0-7.46-17.71,40.38,40.38,0,0,1,5.29,8.23,35.21,35.21,0,0,1,2.93,9.37,33.87,33.87,0,0,1,.08,9.85,37.39,37.39,0,0,1-2.52,9.52,49,49,0,0,1-2.08,4.47l-1.26,2.12a23.5,23.5,0,0,1-1.33,2.07,52.91,52.91,0,0,1-6.25,7.58A63.31,63.31,0,0,1,688.72,326.71Z"/><path d="M706.08,387.72a71.93,71.93,0,0,0,18.82-4.8,59.81,59.81,0,0,0,8.58-4.49c1.4-.81,2.65-1.85,4-2.78a47.82,47.82,0,0,0,3.61-3.21,37,37,0,0,0,6.08-7.47c.4-.69.86-1.36,1.22-2.08l1.06-2.17c.35-.72.58-1.49.88-2.24l.44-1.13.35-1.15a39.1,39.1,0,0,0,.35-19.23,40.46,40.46,0,0,1,1.52,9.67,35.06,35.06,0,0,1-1.13,9.77,33.76,33.76,0,0,1-3.92,9,38.12,38.12,0,0,1-6.15,7.7A47.8,47.8,0,0,1,738,376.4c-1.35.94-2.63,2-4.06,2.8a52.73,52.73,0,0,1-8.78,4.43A63.54,63.54,0,0,1,706.08,387.72Z"/><path d="M693.76,352.73a72.63,72.63,0,0,0,18.3-6.48A59.45,59.45,0,0,0,720.2,341c1.32-.93,2.46-2.08,3.69-3.12a47.85,47.85,0,0,0,3.3-3.53,37.14,37.14,0,0,0,5.38-8c.33-.73.73-1.43,1-2.18l.86-2.26c.29-.75.44-1.54.67-2.31l.33-1.16.25-1.19a39.07,39.07,0,0,0-1.4-19.17,40,40,0,0,1,2.38,9.49,35.14,35.14,0,0,1-.22,9.82,33.85,33.85,0,0,1-3.08,9.36A38.22,38.22,0,0,1,728,335c-1,1.29-2.26,2.39-3.4,3.57s-2.45,2.21-3.8,3.15a51.74,51.74,0,0,1-8.34,5.21A63.75,63.75,0,0,1,693.76,352.73Z"/><path d="M436.37,253.73a30,30,0,0,1,5.31-5.49,29.37,29.37,0,0,1,6.67-3.88,27.87,27.87,0,0,1,7.55-1.88,23.72,23.72,0,0,1,7.83.53,21.26,21.26,0,0,1,7.19,3.25,19.21,19.21,0,0,1,5.31,5.8,23.81,23.81,0,0,1,2.83,7.2,26.41,26.41,0,0,1,.6,7.61,33.61,33.61,0,0,0-1.55-7.35,25.79,25.79,0,0,0-3.19-6.62,19.23,19.23,0,0,0-11.66-8,26,26,0,0,0-14.37.86,33.2,33.2,0,0,0-6.65,3.23A39.59,39.59,0,0,0,436.37,253.73Z"/><path d="M597.73,245.55a39.47,39.47,0,0,0-6.3-4.09,33.41,33.41,0,0,0-6.93-2.57,26.05,26.05,0,0,0-14.39.54,19.21,19.21,0,0,0-10.82,9,26.37,26.37,0,0,0-2.53,6.91,33.7,33.7,0,0,0-.81,7.46,26,26,0,0,1-.15-7.63,24,24,0,0,1,2.1-7.45,19.36,19.36,0,0,1,4.72-6.29,20.94,20.94,0,0,1,6.84-3.92,23.54,23.54,0,0,1,7.74-1.29,28.18,28.18,0,0,1,7.7,1.13,29.6,29.6,0,0,1,7,3.22A30,30,0,0,1,597.73,245.55Z"/><path class="cls-2" d="M526.43,761.74a24.3,24.3,0,0,0-24.3-24.17H470.82c-59.37,0-107.95,48.3-107.95,107.34v109a24.31,24.31,0,0,0,24.31,24.17h43.46c2.68,5.8,9.48,9.94,17.47,9.94a20.82,20.82,0,0,0,13.25-4.53,21.53,21.53,0,0,0,27.1-.55A20.59,20.59,0,0,0,502.3,988,19.65,19.65,0,0,0,520,977.64c2.57-5,6.45-17.56,6.45-23.71Z"/><path class="cls-2" d="M460.8,507,419.33,699.8s-13.5,51.68,52.47,46.71,120-203.75,114-220.65S460.8,507,460.8,507Z"/><path class="cls-6" d="M463.83,617.3c10.88,4.9,31.14,12,56,9a99.54,99.54,0,0,0,21-5"/><path d="M463.83,617.3A143.4,143.4,0,0,0,482.64,623c3.2.69,6.4,1.37,9.63,1.79s6.48.78,9.73,1a115,115,0,0,0,19.54-.59,124.07,124.07,0,0,0,19.25-4,83.36,83.36,0,0,1-19,5.49c-1.64.29-3.29.47-4.94.66s-3.31.28-5,.4-3.32.08-5,.12-3.32-.07-5-.13a96.42,96.42,0,0,1-19.63-3.27A92.92,92.92,0,0,1,463.83,617.3Z"/><path class="cls-6" d="M463.83,638.17c10.88,4.9,31.14,12,56,9a98.93,98.93,0,0,0,21-5"/><path d="M463.83,638.17a145,145,0,0,0,18.81,5.75c3.2.69,6.4,1.36,9.63,1.78s6.48.79,9.73,1a115,115,0,0,0,19.54-.6,124.07,124.07,0,0,0,19.25-4,83.36,83.36,0,0,1-19,5.49c-1.64.29-3.29.47-4.94.66s-3.31.28-5,.41-3.32.07-5,.12-3.32-.08-5-.14a96.42,96.42,0,0,1-19.63-3.27A92.92,92.92,0,0,1,463.83,638.17Z"/><path class="cls-6" d="M454.83,665c10.89,4.9,31.14,12,56,9a100.47,100.47,0,0,0,21-5"/><path d="M454.83,665a144.61,144.61,0,0,0,18.82,5.74c3.19.69,6.39,1.36,9.63,1.79s6.47.78,9.72,1a113.94,113.94,0,0,0,19.54-.6A123.24,123.24,0,0,0,531.8,669a84.09,84.09,0,0,1-19,5.49c-1.63.29-3.28.47-4.94.65s-3.3.29-5,.41-3.32.08-5,.12-3.32-.08-5-.13a96.44,96.44,0,0,1-19.62-3.27A92.77,92.77,0,0,1,454.83,665Z"/><path class="cls-2" d="M591.09,737.57h-47.3a12,12,0,0,0-12,11.92V948.74c0,15.71,1.61,39.3,22.83,39.3a20.46,20.46,0,0,0,14.21-5.41A20.49,20.49,0,0,0,583.06,988a20.13,20.13,0,0,0,15.26-6.51A20.12,20.12,0,0,0,613.58,988c8,0,14.79-4.14,17.47-9.94h52.32a12,12,0,0,0,12-11.93V841.25C695.36,784.22,648.44,737.57,591.09,737.57Z"/><path class="cls-2" d="M268.43,803.38s-33.5,47.49-58.49,16.68c-5.93-7.3-8.92-16.31-5.13-25.28,4.47-10.54,14.12-11.09,21.67-17.42,8.39-7,15.33-28.57,13.44-39.79l-2-11.93-10,11.93V711.73c-5.82,6.38-11.58,14.49-18.47,19.31.39-.27-2.72-9.9-3-10.8-2.95,2-6.68,5.36-8.52,8.71-5.15,9.34-2.28,19.71-3.66,29.72-1.36,9.82-7.33,16.93-10.83,26-7.1,18.4-7.66,39.72,8.92,53.29,31.57,25.85,73.76,0,73.76,0Z"/><ellipse class="cls-2" cx="368.37" cy="893.61" rx="107.45" ry="100.39"/><ellipse class="cls-2" cx="693.66" cy="893.61" rx="107.45" ry="100.39"/></svg>