<svg id="Capa_2" data-name="Capa 2" xmlns="http://www.w3.org/2000/svg" viewBox="0 0 1000 1281"><defs><style>.cls-1,.cls-4{fill:#b2b2b2;}.cls-2,.cls-3{fill:#ea899a;}.cls-3,.cls-4,.cls-5,.cls-6{stroke:#000;stroke-miterlimit:10;}.cls-3,.cls-4{stroke-width:2px;}.cls-6,.cls-7{fill:#fff;}</style></defs><path class="cls-1" d="M187.92,814c-9.13,0-16.92-2.55-23.21-7.66s-11.1-11.92-14.17-20.57a75.36,75.36,0,0,1-4.25-25.4c0-.71.08-3.76.24-9s2-12.2,5.66-20.78A48.46,48.46,0,0,1,167.85,710c6.14-4.61,13.62-6.88,22.36-6.88,1,0,2,0,3.14.07A30.6,30.6,0,0,1,214,713.37c5.59,6.17,8.5,14.4,8.82,24.83-.16,2.13-1.66,3.69-4.41,4.61a13.81,13.81,0,0,1-4.8.78,19.79,19.79,0,0,1-4.72-.71c-2-.5-3.07-2.06-3.31-4.82-.08-5.75-1.1-10.22-3.07-13.55s-4.72-4.9-7.95-4.9h-.07c-3.23,0-6.54,2-10.08,6a62,62,0,0,0-10,26.6,89.62,89.62,0,0,0-.79,11.85,81,81,0,0,0,2,17c1.34,6.17,3.7,10.85,7.08,14,2.52,2,4.88,3,7.16,3a15.92,15.92,0,0,0,4.09-.85c2-.64,4.1-2.56,6.46-5.82a36.61,36.61,0,0,0,5.27-11.14A34.87,34.87,0,0,0,207,771c0-.92-.08-1.84-.16-2.76v-.15c0-2.34,1.34-3.76,4.09-4.32a15.42,15.42,0,0,1,9.29,1.06,5.12,5.12,0,0,1,3.78,4.68q-1.42,19.26-10.86,31.29c-6.3,8-14,12.34-23.22,13C189.18,813.89,188.55,814,187.92,814Z"/><path class="cls-2" d="M248.53,801.55q-9.21-8.62-12.75-23.2a122.07,122.07,0,0,1-3.15-28.45c0-1.42.08-5.46.31-12.2s1.18-16.6,3.15-29.51q.71-3.51,5.43-4.9a28.92,28.92,0,0,1,7.95-1c.87,0,2.6.07,5,.21a21.76,21.76,0,0,1,7.87,2.27c2.67,1.28,4,2.91,4,5v.35c-.08.64-.23,1.35-.31,2.2-.87,4.9-1.73,12.13-2.68,21.71a178.65,178.65,0,0,0-1,19.51q0,4.68.23,9.36c1.11,12.7,3.94,21.36,8.42,25.83,2.29,2.27,4.65,3.47,7.09,3.47s5.35-1.63,9.05-4.82,6.77-11.64,9.28-25.26a156.92,156.92,0,0,0,1.66-22.48c0-2.13-.16-6.1-.4-11.85s-.63-11-1.18-15.82c-.08-.78-.15-1.49-.23-2.06q0-4.26,4.72-5.74a18.12,18.12,0,0,1,5.51-.86,25.57,25.57,0,0,1,5.66.86,5.11,5.11,0,0,1,4.25,4.39c.79,7.74,1.26,16.18,1.42,25.26v3.26a209.17,209.17,0,0,1-1.57,24.83,91.87,91.87,0,0,1-6.38,24,43.69,43.69,0,0,1-13.38,18c-5.74,4.47-13.22,6.74-22.27,6.74C263.24,810.41,254.67,807.36,248.53,801.55Z"/><path class="cls-1" d="M379.9,811.55c0,1.42-1.34,2.49-4.09,3.34a36.76,36.76,0,0,1-9.29,1.28h-1.26A30.36,30.36,0,0,1,357,815.1c-2.6-.64-3.86-1.84-3.86-3.55v-93l-23.84.07c-1.5,0-2.76-1.27-3.63-3.83a32.93,32.93,0,0,1-1.41-5,17.15,17.15,0,0,1,1-4.76c.71-2.34,2-3.54,3.78-3.54l71.38-.22c1.5,0,2.75,1.28,3.62,3.76a41.79,41.79,0,0,1,1.5,4.83,18.68,18.68,0,0,1-1,4.75c-.71,2.48-2,3.76-3.85,3.76l-20.78.07Z"/><path class="cls-2" d="M453.55,809.42c-5.12.78-10.62,1.35-16.45,1.77-3.78.29-7.16.43-10.23.43-1.73,0-4-.07-6.93-.28s-4.56-.85-5.11-2.06a222.57,222.57,0,0,1,0-104.5c.55-1.2,3.07-2,7.56-2.48,3-.28,6.29-.35,9.91-.35,1.81,0,4.72.07,8.74.14s8.5.5,13.61,1.06,8.42,1.21,10.15,1.92a5.28,5.28,0,0,1,2.84,4.25,15.5,15.5,0,0,1,.15,1.85,10.93,10.93,0,0,1-.94,4.26,4.08,4.08,0,0,1-3.7,2.41c-1.81.07-4.49.07-8,.14-3.38.07-6.69.07-9.91.14s-5.59.14-6.93.21a190.87,190.87,0,0,0-4,38.95c0,2.55.08,5.18.16,7.73l20.14-1c2,.07,3.31,1.28,4.09,3.62a12.35,12.35,0,0,1,.71,4.11,17.11,17.11,0,0,1-.55,3.9,3.56,3.56,0,0,1-3.46,2.84l-19.75.85c.7,5.39,1.57,10.71,2.67,16h2.52c1,0,2.6,0,4.72-.08s4.72-.14,7.79-.21c3.62-.07,6.46-.14,8.42-.21,2.6.07,4.41,1,5.36,2.69a7.38,7.38,0,0,1,.94,3.62,14.51,14.51,0,0,1-.47,2.91,4.88,4.88,0,0,1-3,3A71.5,71.5,0,0,1,453.55,809.42Z"/><path class="cls-1" d="M558.46,814c-9.13,0-16.92-2.55-23.21-7.66s-11.1-11.92-14.17-20.57a75.36,75.36,0,0,1-4.25-25.4c0-.71.08-3.76.24-9s2-12.2,5.66-20.78A48.38,48.38,0,0,1,538.39,710c6.14-4.61,13.62-6.88,22.35-6.88,1,0,2,0,3.15.07a30.62,30.62,0,0,1,20.62,10.22c5.59,6.17,8.5,14.4,8.82,24.83-.16,2.13-1.66,3.69-4.41,4.61a13.81,13.81,0,0,1-4.8.78,19.79,19.79,0,0,1-4.72-.71c-2-.5-3.07-2.06-3.31-4.82-.08-5.75-1.1-10.22-3.07-13.55s-4.72-4.9-7.95-4.9H565c-3.22,0-6.53,2-10.07,6a61.87,61.87,0,0,0-10,26.6,88,88,0,0,0-.79,11.85,81,81,0,0,0,2,17c1.33,6.17,3.69,10.85,7.08,14,2.52,2,4.88,3,7.16,3a16,16,0,0,0,4.09-.85c2-.64,4.1-2.56,6.46-5.82a36.61,36.61,0,0,0,5.27-11.14,34.87,34.87,0,0,0,1.34-9.15c0-.92-.08-1.84-.16-2.76v-.15c0-2.34,1.34-3.76,4.09-4.32a18.23,18.23,0,0,1,2.84-.29,18.44,18.44,0,0,1,6.45,1.35,5.12,5.12,0,0,1,3.78,4.68q-1.43,19.26-10.86,31.29c-6.3,8-14,12.34-23.22,13C559.72,813.89,559.09,814,558.46,814Z"/><path class="cls-2" d="M647.9,811.21A39,39,0,0,1,624.52,804c-6.61-4.82-11.64-11.42-15.18-19.86a70.44,70.44,0,0,1-5.43-27.1v-.85a71.85,71.85,0,0,1,5-26.74,49.55,49.55,0,0,1,15.51-21.07q10.5-8.2,26.44-8.52,13.92.23,23.21,7.88a47.18,47.18,0,0,1,13.78,20.07,71.66,71.66,0,0,1,4.56,25.76v7.3c0,4.75-1.57,11.28-4.64,19.72a51.17,51.17,0,0,1-13.93,21c-6.22,5.61-13.93,8.73-23.14,9.51C649.79,811.21,648.84,811.21,647.9,811.21Zm-9-82.5a44.55,44.55,0,0,0-6.61,19.65,75.42,75.42,0,0,0-.48,8.44,79.34,79.34,0,0,0,1.89,16.1,35.07,35.07,0,0,0,7.64,15.75,15.12,15.12,0,0,0,12,5.75,18,18,0,0,0,2.67-.22c5-1.06,8.9-4.25,12-9.65a53.12,53.12,0,0,0,6.05-19.22,70.57,70.57,0,0,0,.79-10.78,99.06,99.06,0,0,0-1.26-13.69,33.92,33.92,0,0,0-6.29-15,15.09,15.09,0,0,0-12.67-6.46h-1A19.6,19.6,0,0,0,638.93,728.71Z"/><path class="cls-1" d="M717,812.83a10.92,10.92,0,0,1-5.74-1.35c-1.58-.85-2.91-3-4.09-6.39a166.11,166.11,0,0,1-7.48-47.17c-.08-2.13-.08-4.33-.08-6.39a185.81,185.81,0,0,1,4.33-41.35,6.2,6.2,0,0,1,2.75-3.41,15,15,0,0,1,4.65-1.77A94.57,94.57,0,0,1,730,703a67.31,67.31,0,0,1,22.9,4.4c8.11,2.91,14.56,8.73,19.44,17.38a45.48,45.48,0,0,1,5.74,23,62.81,62.81,0,0,1-.47,7.59,70.49,70.49,0,0,1-8.26,25.12,63.85,63.85,0,0,1-18.81,21.21c-8.11,5.89-18,9.5-29.67,10.85C719.49,812.68,718.15,812.83,717,812.83Zm11.1-59.59v11.84c0,7.52,1.34,17.1,3.94,28.81a36.45,36.45,0,0,0,16-13.27,58.78,58.78,0,0,0,8.82-20.57,56.54,56.54,0,0,0,1.49-12.84A70.39,70.39,0,0,0,757,735.36c-.86-4.9-3.54-9.36-7.95-13.55-3.85-3.62-9-5.46-15.5-5.46-1,0-2,.07-3,.14A238.63,238.63,0,0,0,728.07,753.24Z"/><path class="cls-2" d="M832.51,809.42c-5.12.78-10.63,1.35-16.45,1.77-3.78.29-7.16.43-10.23.43-1.73,0-4-.07-6.93-.28s-4.56-.85-5.11-2.06a222.57,222.57,0,0,1,0-104.5c.55-1.2,3.07-2,7.55-2.48,3-.28,6.3-.35,9.92-.35,1.81,0,4.72.07,8.74.14s8.5.5,13.61,1.06,8.42,1.21,10.15,1.92a5.28,5.28,0,0,1,2.84,4.25,15.5,15.5,0,0,1,.15,1.85,10.93,10.93,0,0,1-.94,4.26,4.08,4.08,0,0,1-3.7,2.41c-1.81.07-4.49.07-8,.14-3.38.07-6.69.07-9.91.14s-5.59.14-6.93.21a190.87,190.87,0,0,0-4,38.95c0,2.55.08,5.18.16,7.73l20.14-1c2,.07,3.31,1.28,4.09,3.62a12.35,12.35,0,0,1,.71,4.11,17.11,17.11,0,0,1-.55,3.9,3.56,3.56,0,0,1-3.46,2.84l-19.75.85c.7,5.39,1.57,10.71,2.67,16h2.52c1,0,2.6,0,4.72-.08s4.72-.14,7.79-.21c3.62-.07,6.46-.14,8.42-.21,2.6.07,4.41,1,5.36,2.69a7.38,7.38,0,0,1,.94,3.62,14.51,14.51,0,0,1-.47,2.91,4.88,4.88,0,0,1-3,3A71.5,71.5,0,0,1,832.51,809.42Z"/><path class="cls-2" d="M257.6,901.56a7.78,7.78,0,0,1-3.93-1.07l-220-125.94a10.47,10.47,0,0,1-4.92-8.43,11,11,0,0,1,3.74-9.21L242.21,585.36c4-3.28,9.55-2.17,12.38,2.47s1.88,11.07-2.13,14.35L54.92,763.76,261.54,882c4.4,2.52,6.2,8.7,4,13.79A8.86,8.86,0,0,1,257.6,901.56Z"/><path class="cls-2" d="M757.4,917.64c-3.38,0-6.62-2.26-8.1-6.07-2-5.18,0-11.27,4.45-13.61l210.1-109.72L771.38,618.65c-3.91-3.44-4.66-9.9-1.69-14.42s8.55-5.4,12.45-2L986.49,782.32a11,11,0,0,1,3.45,9.36,10.3,10.3,0,0,1-5.17,8.22L761.05,916.73A7.83,7.83,0,0,1,757.4,917.64Z"/><text/><path class="cls-3" d="M573.51,402.53S646.19,324,674.15,447.41c0,0,9.66,68.88-14.9,101.22s-14,72.66-17.55,81.36-8.22,31.9-39,12.61S573.51,402.53,573.51,402.53Z"/><path class="cls-1" d="M583.18,457.77s46.28-46.47,59.52,5.09c13.76,53.58-1,50.7-19.1,121.79-10.21,40.11-42.83-34-41.92-50.39S583.18,457.77,583.18,457.77Z"/><path class="cls-3" d="M433.77,401.47S362.66,321,332.28,443.69c0,0-11,68.61,12.91,101.59s12.53,73,15.95,81.8,7.59,32.1,38.72,13.63S433.77,401.47,433.77,401.47Z"/><path class="cls-1" d="M423,456.45s-45.35-47.69-59.61,3.51c-14.8,53.2,0,50.71,16.71,122.26,9.43,40.37,43.49-32.86,42.9-49.27S423,456.45,423,456.45Z"/><path class="cls-4" d="M409,494.24c.15,56,38.73,131,93.59,130.2,66.46-1,91.62-82,97.76-126.44,10.16-73.5-43.77-134.79-97.76-134.79S408.78,421.7,409,494.24Z"/><ellipse class="cls-5" cx="466.11" cy="524.12" rx="29.95" ry="41.75"/><ellipse class="cls-6" cx="474.35" cy="513.16" rx="14.74" ry="19.79"/><ellipse class="cls-6" cx="454.49" cy="536.69" rx="5.13" ry="8.14"/><ellipse class="cls-6" cx="459.61" cy="558.35" rx="2.56" ry="2.97"/><ellipse class="cls-6" cx="467.24" cy="561.9" rx="3.07" ry="3.56"/><path d="M443.82,497.92a22.85,22.85,0,0,1-6.47-5.25,20.94,20.94,0,0,1-4.13-7.32,18.1,18.1,0,0,1-.71-8.39,16.79,16.79,0,0,1,3.34-7.63,20.32,20.32,0,0,0-2.58,7.73c-.07.67-.06,1.35-.09,2a19.39,19.39,0,0,0,.13,2,19,19,0,0,0,.86,3.94,23.73,23.73,0,0,0,3.78,7.15,24.59,24.59,0,0,0,2.73,3.05A32.17,32.17,0,0,0,443.82,497.92Z"/><path d="M437.23,524.92a19.86,19.86,0,0,1-7.87-1.89,17.89,17.89,0,0,1-3.52-2.14,19.59,19.59,0,0,1-2.95-2.88,18.8,18.8,0,0,1-2.17-3.53,16.51,16.51,0,0,1-1.22-3.94,17.77,17.77,0,0,1,.51-8.08,24.48,24.48,0,0,0-.24,4,17.82,17.82,0,0,0,3.9,10.92,20.26,20.26,0,0,0,6,5,20,20,0,0,0,3.65,1.57A26.6,26.6,0,0,0,437.23,524.92Z"/><path d="M441.91,509.43a20.25,20.25,0,0,1-11-5.17,20.87,20.87,0,0,1-2.7-3.16,19.34,19.34,0,0,1-1.89-3.71,16.74,16.74,0,0,1-.92-4.05,18.39,18.39,0,0,1,.09-4.13,19.13,19.13,0,0,1,1-3.95,23.73,23.73,0,0,0-.54,4,18.23,18.23,0,0,0,.18,4,18.51,18.51,0,0,0,2.88,7.3,21,21,0,0,0,5.6,5.55,19.8,19.8,0,0,0,3.49,1.94A27.72,27.72,0,0,0,441.91,509.43Z"/><ellipse class="cls-5" cx="543.61" cy="524.58" rx="29.95" ry="41.75"/><ellipse class="cls-7" cx="551.84" cy="513.62" rx="14.74" ry="19.79"/><ellipse class="cls-7" cx="531.98" cy="537.14" rx="5.13" ry="8.14"/><path d="M566.91,502.46a30,30,0,0,0,3.14-2.68,23.24,23.24,0,0,0,2.73-3,23.73,23.73,0,0,0,3.78-7.15,19,19,0,0,0,.86-3.94,17,17,0,0,0,.13-2c0-.67,0-1.35-.09-2a20.22,20.22,0,0,0-2.58-7.72,17,17,0,0,1,2.14,3.58,17.43,17.43,0,0,1,1.2,4,18,18,0,0,1-.71,8.39,22,22,0,0,1-1.7,3.88,23,23,0,0,1-8.9,8.69Z"/><path d="M573.5,529.46a27.07,27.07,0,0,0,3.89-1,21,21,0,0,0,9.67-6.54,18,18,0,0,0,2.09-3.3A17.6,17.6,0,0,0,591,511a24.48,24.48,0,0,0-.24-4,17.78,17.78,0,0,1,.51,8.08A16.73,16.73,0,0,1,590,519a19.05,19.05,0,0,1-2.17,3.52,20.15,20.15,0,0,1-3,2.89,18,18,0,0,1-3.52,2.13A19.86,19.86,0,0,1,573.5,529.46Z"/><path d="M568.82,514a27.72,27.72,0,0,0,3.79-1.4,19.8,19.8,0,0,0,3.49-1.94,21,21,0,0,0,5.6-5.55,18.45,18.45,0,0,0,2.88-7.3,18.23,18.23,0,0,0,.18-4,23.73,23.73,0,0,0-.54-4,19.13,19.13,0,0,1,1,3.95,18.39,18.39,0,0,1,.09,4.13,16.74,16.74,0,0,1-.92,4.05,19.06,19.06,0,0,1-1.89,3.71,20.87,20.87,0,0,1-2.7,3.16,19.52,19.52,0,0,1-3.32,2.48A20.15,20.15,0,0,1,568.82,514Z"/><path d="M471.06,470.17a9.92,9.92,0,0,1,4.39-4.56,8.63,8.63,0,0,1,6.64-.58,8,8,0,0,1,4.77,4.66,11.27,11.27,0,0,1,.64,6.29,19.54,19.54,0,0,0-2-5.6,7.56,7.56,0,0,0-4-3.46,8.45,8.45,0,0,0-5.37.11A15.24,15.24,0,0,0,471.06,470.17Z"/><path d="M532.35,466.55a19.94,19.94,0,0,0-2.59-1.6,12.38,12.38,0,0,0-2.73-1,8.3,8.3,0,0,0-5.34.55,7.92,7.92,0,0,0-3.66,3.9,19.71,19.71,0,0,0-1.56,5.77,11.46,11.46,0,0,1,.1-6.33,8.23,8.23,0,0,1,4.25-5.13,8.53,8.53,0,0,1,6.66-.25A9.59,9.59,0,0,1,532.35,466.55Z"/><path class="cls-3" d="M480.34,582.22l-15.75,85.32s-5.13,22.86,19.92,20.67,45.56-90.16,43.28-97.63S480.34,582.22,480.34,582.22Z"/><path class="cls-2" d="M481.49,631a35.18,35.18,0,0,0,21.26,4,33.27,33.27,0,0,0,8-2.2"/><path d="M481.49,631c1.17.48,2.33,1,3.52,1.36a35.28,35.28,0,0,0,3.58,1.12,40.1,40.1,0,0,0,7.36,1.22,37.91,37.91,0,0,0,7.45-.24,33.54,33.54,0,0,0,3.68-.69c1.23-.27,2.43-.64,3.64-1a27.65,27.65,0,0,1-3.5,1.49,31,31,0,0,1-3.7,1,29.61,29.61,0,0,1-7.64.48,30.79,30.79,0,0,1-7.5-1.49A31.34,31.34,0,0,1,481.49,631Z"/><path class="cls-2" d="M481.49,640.27a35.1,35.1,0,0,0,21.26,4,33.27,33.27,0,0,0,8-2.2"/><path d="M481.49,640.27c1.17.49,2.33,1,3.52,1.37s2.37.81,3.58,1.11A40.12,40.12,0,0,0,496,644a37.91,37.91,0,0,0,7.45-.24,33.58,33.58,0,0,0,3.68-.7c1.23-.26,2.43-.63,3.64-1a27.6,27.6,0,0,1-3.5,1.48,33,33,0,0,1-3.7,1,30.06,30.06,0,0,1-7.64.48,31.71,31.71,0,0,1-14.39-4.71Z"/><path class="cls-2" d="M478.07,652.14a35.1,35.1,0,0,0,21.26,4,33.27,33.27,0,0,0,8-2.2"/><path d="M478.07,652.14c1.17.49,2.33,1,3.52,1.37a37.3,37.3,0,0,0,3.59,1.12,40.72,40.72,0,0,0,7.35,1.22,37.91,37.91,0,0,0,7.45-.24,35.08,35.08,0,0,0,3.68-.69c1.23-.27,2.43-.64,3.64-1a27,27,0,0,1-3.5,1.49,33.4,33.4,0,0,1-3.69,1,29.67,29.67,0,0,1-7.64.48,31.7,31.7,0,0,1-14.4-4.71Z"/><ellipse class="cls-6" cx="539.6" cy="556.52" rx="2.56" ry="2.97"/><ellipse class="cls-6" cx="547.22" cy="560.07" rx="3.07" ry="3.56"/></svg>